General
Count                            : 279
Count of stream of this kind     : 1
Kind of stream                   : General
Kind of stream                   : General
Stream identifier                : 0
Count of video streams           : 1
Count of audio streams           : 1
Video_Format_List                : MPEG-4 Visual
Video_Format_WithHint_List       : MPEG-4 Visual
Codecs Video                     : MPEG-4 Visual
Video_Language_List              : English
Audio_Format_List                : AAC
Audio_Format_WithHint_List       : AAC
Audio codecs                     : AAC LC
Audio_Language_List              : English
Complete name                    : _MOV.mov
File name                        : _MOV.mov
File extension                   : mov
Format                           : MPEG-4
Format                           : MPEG-4
Format/Extensions usually used   : mp4 m4v m4a m4b m4p 3gpp 3gp 3gpp2 3g2 k3g jpm jpx mqv ismv isma f4v
Commercial name                  : MPEG-4
Format profile                   : QuickTime
Internet media type              : video/mp4
Codec ID                         : qt  
Codec ID/Url                     : http://www.apple.com/quicktime/download/standalone.html
Codec                            : MPEG-4
Codec                            : MPEG-4
Codec/Extensions usually used    : mp4 m4v m4a m4b m4p 3gpp 3gp 3gpp2 3g2 k3g jpm jpx mqv ismv isma f4v
File size                        : 3284480
File size                        : 3.13 MiB
File size                        : 3 MiB
File size                        : 3.1 MiB
File size                        : 3.13 MiB
File size                        : 3.132 MiB
Duration                         : 85500
Duration                         : 1mn 25s
Duration                         : 1mn 25s 500ms
Duration                         : 1mn 25s
Duration                         : 00:01:25.500
Overall bit rate                 : 307319
Overall bit rate                 : 307 Kbps
Stream size                      : 21656
Stream size                      : 21.1 KiB (1%)
Stream size                      : 21 KiB
Stream size                      : 21 KiB
Stream size                      : 21.1 KiB
Stream size                      : 21.15 KiB
Stream size                      : 21.1 KiB (1%)
Proportion of this stream        : 0.00659
HeaderSize                       : 40
DataSize                         : 3263028
FooterSize                       : 21412
IsStreamable                     : No
Encoded date                     : UTC 2005-10-17 22:54:32
Tagged date                      : UTC 2005-10-17 22:56:39
File creation date               : UTC 2011-11-28 08:45:32.777
File creation date (local)       : 2011-11-28 08:45:32.777
File last modification date      : UTC 2010-07-17 19:07:22.174
File last modification date (loc : 2010-07-17 19:07:22.174
Writing library                  : Apple QuickTime
Writing library                  : Apple QuickTime
Writing library/Name             : Apple QuickTime
Xtra                             : WM/MediaClassPrimaryID

Video
Count                            : 200
Count of stream of this kind     : 1
Kind of stream                   : Video
Kind of stream                   : Video
Stream identifier                : 0
ID                               : 1
ID                               : 1
Format                           : MPEG-4 Visual
Commercial name                  : MPEG-4 Visual
Format profile                   : Simple@L1
Format settings                  : BVOP
Format settings, BVOP            : Yes
Format settings, BVOP            : Yes
Format settings, QPel            : No
Format settings, QPel            : No
Format settings, GMC             : 0
Format settings, GMC             : No warppoints
Format settings, Matrix          : Default (H.263)
Format settings, Matrix          : Default (H.263)
Internet media type              : video/MP4V-ES
Codec ID                         : 20
Codec                            : MPEG-4V
Codec                            : MPEG-4 Visual
Codec/Family                     : MPEG-4V
Codec/CC                         : 20
Codec profile                    : Simple@L1
Codec settings                   : BVOP
Codec settings, Packet bitstream : No
Codec settings, BVOP             : Yes
Codec settings, QPel             : No
Codec settings, GMC              : 0
Codec settings, GMC              : No warppoints
Codec settings, Matrix           : Default (H.263)
Duration                         : 85500
Duration                         : 1mn 25s
Duration                         : 1mn 25s 500ms
Duration                         : 1mn 25s
Duration                         : 00:01:25.500
Bit rate                         : 261817
Bit rate                         : 262 Kbps
Width                            : 640
Width                            : 640 pixels
Height                           : 480
Height                           : 480 pixels
Pixel aspect ratio               : 1.000
Display aspect ratio             : 1.333
Display aspect ratio             : 4:3
Rotation                         : 0.000
Frame rate mode                  : CFR
Frame rate mode                  : Constant
Frame rate                       : 10.000
Frame rate                       : 10.000 fps
Original frame rate              : 25.000
Original frame rate              : 25.000 fps
Frame count                      : 855
Resolution                       : 8
Resolution                       : 8 bits
Color space                      : YUV
Bit depth                        : 8
Bit depth                        : 8 bits
Scan type                        : Progressive
Scan type                        : Progressive
Interlacement                    : PPF
Interlacement                    : Progressive
Compression mode                 : Lossy
Compression mode                 : Lossy
Bits/(Pixel*Frame)               : 0.085
Stream size                      : 2798169
Stream size                      : 2.67 MiB (85%)
Stream size                      : 3 MiB
Stream size                      : 2.7 MiB
Stream size                      : 2.67 MiB
Stream size                      : 2.669 MiB
Stream size                      : 2.67 MiB (85%)
Proportion of this stream        : 0.85194
Writing library                  : 3ivx
Writing library                  : 3ivx
Language                         : en
Language                         : English
Language                         : English
Language                         : en
Language                         : eng
Language                         : en
Encoded date                     : UTC 2005-10-17 22:54:33
Tagged date                      : UTC 2005-10-17 22:56:39

Audio
Count                            : 171
Count of stream of this kind     : 1
Kind of stream                   : Audio
Kind of stream                   : Audio
Stream identifier                : 0
ID                               : 2
ID                               : 2
Format                           : AAC
Format/Info                      : Advanced Audio Codec
Commercial name                  : AAC
Format profile                   : LC
Codec ID                         : 40
Codec                            : AAC LC
Codec                            : AAC LC
Codec/Family                     : AAC
Codec/CC                         : 40
Duration                         : 85500
Duration                         : 1mn 25s
Duration                         : 1mn 25s 500ms
Duration                         : 1mn 25s
Duration                         : 00:01:25.500
Bit rate mode                    : CBR
Bit rate mode                    : Constant
Bit rate                         : 43476
Bit rate                         : 43.5 Kbps
Nominal bit rate                 : 48000
Nominal bit rate                 : 48.0 Kbps
Channel(s)                       : 1
Channel(s)                       : 1 channel
Channel positions                : Front: C
Channel positions                : 1/0/0
Sampling rate                    : 32000
Sampling rate                    : 32.0 KHz
Samples count                    : 2736000
Compression mode                 : Lossy
Compression mode                 : Lossy
Stream size                      : 464655
Stream size                      : 454 KiB (14%)
Stream size                      : 454 KiB
Stream size                      : 454 KiB
Stream size                      : 454 KiB
Stream size                      : 453.8 KiB
Stream size                      : 454 KiB (14%)
Proportion of this stream        : 0.14147
Language                         : en
Language                         : English
Language                         : English
Language                         : en
Language                         : eng
Language                         : en
Encoded date                     : UTC 2005-10-17 22:54:34
Tagged date                      : UTC 2005-10-17 22:56:39
Material_Duration                : 85536
Material_StreamSize              : 464851

